<svg height='100px' width='100px'  fill="#f5fffa" xmlns="http://www.w3.org/2000/svg" xmlns:xlink="http://www.w3.org/1999/xlink" version="1.1" x="0px" y="0px" viewBox="0 0 60 60" style="enable-background:new 0 0 60 60;" xml:space="preserve"><g><path d="M30,36.5c-16.262,0-30-5.038-30-11c0-6.177,15.572-10,30-10s30,3.823,30,10C60,31.462,46.262,36.5,30,36.5z M30,17.5   c-15.77,0-28,4.3-28,8c0,4.077,12.49,9,28,9s28-4.923,28-9C58,21.8,45.77,17.5,30,17.5z"></path><path d="M30,44.5c-16.262,0-30-5.038-30-11v-8c0-0.552,0.447-1,1-1s1,0.448,1,1v8c0,4.077,12.49,9,28,9s28-4.923,28-9v-8   c0-0.552,0.447-1,1-1s1,0.448,1,1v8C60,39.462,46.262,44.5,30,44.5z"></path><path d="M30,44.5c-0.553,0-1-0.448-1-1v-8c0-0.552,0.447-1,1-1s1,0.448,1,1v8C31,44.052,30.553,44.5,30,44.5z"></path><path d="M36,43.5c-0.553,0-1-0.448-1-1v-7c0-0.552,0.447-1,1-1s1,0.448,1,1v7C37,43.052,36.553,43.5,36,43.5z"></path><path d="M42,42.5c-0.553,0-1-0.448-1-1v-6c0-0.552,0.447-1,1-1s1,0.448,1,1v6C43,42.052,42.553,42.5,42,42.5z"></path><path d="M48,41.5c-0.553,0-1-0.448-1-1v-7c0-0.552,0.447-1,1-1s1,0.448,1,1v7C49,41.052,48.553,41.5,48,41.5z"></path><path d="M54,39.5c-0.553,0-1-0.448-1-1v-7c0-0.552,0.447-1,1-1s1,0.448,1,1v7C55,39.052,54.553,39.5,54,39.5z"></path><path d="M24,43.5c-0.553,0-1-0.448-1-1v-7c0-0.552,0.447-1,1-1s1,0.448,1,1v7C25,43.052,24.553,43.5,24,43.5z"></path><path d="M18,42.5c-0.553,0-1-0.448-1-1v-7c0-0.552,0.447-1,1-1s1,0.448,1,1v7C19,42.052,18.553,42.5,18,42.5z"></path><path d="M12,41.5c-0.553,0-1-0.448-1-1v-7c0-0.552,0.447-1,1-1s1,0.448,1,1v7C13,41.052,12.553,41.5,12,41.5z"></path><path d="M6,39.5c-0.553,0-1-0.448-1-1v-7c0-0.552,0.447-1,1-1s1,0.448,1,1v7C7,39.052,6.553,39.5,6,39.5z"></path></g></svg>