<svg height='100px' width='100px'  fill="#f5fffa" xmlns="http://www.w3.org/2000/svg" data-name="Layer 1" viewBox="0 0 84.3 84.3" x="0px" y="0px"><title>030</title><path d="M83,8H32.36a1.5,1.5,0,1,0,0,3H83a6.25,6.25,0,0,1,6.24,6.24V83A6.25,6.25,0,0,1,83,89.25H17.19A6.25,6.25,0,0,1,11,83V17.35a6.25,6.25,0,0,1,6.24-6.24h6.45a1.5,1.5,0,1,0,0-3H17.19A9.25,9.25,0,0,0,8,17.35V83a9.25,9.25,0,0,0,9.24,9.24H83A9.25,9.25,0,0,0,92.25,83V17.19A9.25,9.25,0,0,0,83,8Z" transform="translate(-7.95 -7.95)"></path><path d="M33.49,25.37a1.5,1.5,0,0,0-1.5,1.5v6.24H25.9a1.5,1.5,0,1,0,0,3H32V42.2a1.5,1.5,0,0,0,3,0V36.11h6.24a1.5,1.5,0,0,0,0-3H35V26.87A1.5,1.5,0,0,0,33.49,25.37Z" transform="translate(-7.95 -7.95)"></path><path d="M58.65,36.11H74a1.5,1.5,0,0,0,0-3H58.65a1.5,1.5,0,0,0,0,3Z" transform="translate(-7.95 -7.95)"></path><path d="M40,60.33a1.5,1.5,0,0,0-2.12,0l-4.34,4.34-4.34-4.34a1.5,1.5,0,0,0-2.12,2.12l4.34,4.34L27.1,71.14a1.5,1.5,0,1,0,2.12,2.12l4.34-4.34,4.34,4.34A1.5,1.5,0,1,0,40,71.14L35.69,66.8,40,62.45A1.5,1.5,0,0,0,40,60.33Z" transform="translate(-7.95 -7.95)"></path><path d="M58.65,64H74a1.5,1.5,0,0,0,0-3H58.65a1.5,1.5,0,0,0,0,3Z" transform="translate(-7.95 -7.95)"></path><path d="M58.65,71.92H74a1.5,1.5,0,0,0,0-3H58.65a1.5,1.5,0,0,0,0,3Z" transform="translate(-7.95 -7.95)"></path></svg>