<?xml version="1.0" encoding="utf-8"?>
<!-- Generator: Adobe Illustrator 24.0.2, SVG Export Plug-In . SVG Version: 6.00 Build 0)  -->
<svg version="1.1" baseProfile="tiny" id="Layer_1" xmlns="http://www.w3.org/2000/svg" xmlns:xlink="http://www.w3.org/1999/xlink"
	 x="0px" y="0px" viewBox="0 0 100 100" xml:space="preserve">
<title>030</title>
<path fill="#F5FFFA" d="M13.1,75.8c-4.7,0-8.6-3.8-8.6-8.6V13.5c0-4.7,3.8-8.5,8.5-8.6h5.3c1.2,0,2.2,1,2.2,2.2s-1,2.2-2.2,2.2h-5.3
	c-2.3,0-4.1,1.8-4.1,4.1v53.7c0,2.2,1.8,4.1,4.1,4.1h53.9c2.3,0,4.1-1.8,4.1-4.1V13.4c0-2.3-1.8-4.1-4.1-4.1H25.5
	c-1.2,0-2.2-1-2.2-2.2c0-1.2,1-2.2,2.2-2.2h41.5c4.7,0,8.5,3.8,8.6,8.5v53.9c0,4.7-3.9,8.6-8.6,8.6H13.1z"/>
<path fill="#F5FFFA" d="M26.4,36.1c-1.2,0-2.2-1-2.2-2.2v-4h-4c-1.2,0-2.2-1-2.2-2.2s1-2.2,2.2-2.2h4v-4.1c0-1.2,1-2.2,2.2-2.2
	c1.2,0,2.2,1,2.2,2.2v4.1h4.1c1.2,0,2.2,1,2.2,2.2s-1,2.2-2.2,2.2h-4.1v4C28.6,35.1,27.6,36.1,26.4,36.1z"/>
<path fill="#F5FFFA" d="M47,29.8c-1.2,0-2.2-1-2.2-2.2s1-2.2,2.2-2.2h12.6c1.2,0,2.2,1,2.2,2.2s-1,2.2-2.2,2.2H47z"/>
<path fill="#F5FFFA" d="M32.2,63.4c-0.7,0-1.3-0.3-1.8-0.8l-3-2.9l-3.1,3.1c-0.4,0.4-1,0.6-1.6,0.6c-0.6,0-1.2-0.3-1.7-0.7
	c-0.9-0.9-0.8-2.4,0.1-3.2l3-3l-3-3c-0.8-0.9-0.8-2.3,0-3.1c0.4-0.5,1-0.7,1.7-0.7c0.6,0,1.1,0.2,1.6,0.6l3,3l3-3
	c0.4-0.4,1-0.7,1.6-0.7s1.2,0.2,1.6,0.7c0.9,0.9,0.9,2.3,0,3.2l-3,3l3,3c0.1,0.1,0.2,0.2,0.3,0.3c0.8,1,0.7,2.4-0.3,3.2
	C33.3,63.2,32.8,63.4,32.2,63.4L32.2,63.4z"/>
<path fill="#F5FFFA" d="M49,54.9c-1.3,0-2.3-1-2.3-2.3s1-2.3,2.3-2.3h13.2c1.3,0,2.3,1,2.3,2.3s-1,2.3-2.3,2.3H49z"/>
<path fill="#F5FFFA" d="M49,61.7c-1.3,0-2.3-1-2.3-2.3s1-2.3,2.3-2.3h13.2c1.3,0,2.3,1,2.3,2.3s-1,2.3-2.3,2.3H49z"/>
<line fill="none" stroke="#FFFFFF" stroke-width="4" stroke-miterlimit="10" x1="85.1" y1="70.3" x2="85.1" y2="100"/>
<line fill="none" stroke="#FFFFFF" stroke-width="4" stroke-miterlimit="10" x1="100" y1="85.1" x2="70.3" y2="85.1"/>
</svg>
