<?xml version="1.0" encoding="utf-8"?>
<!-- Generator: Adobe Illustrator 24.0.2, SVG Export Plug-In . SVG Version: 6.00 Build 0)  -->
<svg version="1.1" baseProfile="tiny" id="Layer_1" xmlns="http://www.w3.org/2000/svg" xmlns:xlink="http://www.w3.org/1999/xlink"
	 x="0px" y="0px" viewBox="0 0 100 100" xml:space="preserve">
<g>
	<g>
		<path fill="#F5FFFA" d="M67.9,24.2c-1.8,0-3.4-0.7-4.7-1.9c-1.3-1.1-2-2.8-2-4.7c0-1.7,0.7-3.4,2-4.7c1.3-1.3,2.9-1.9,4.7-1.9
			c1.8,0,3.4,0.7,4.7,1.9c1.3,1.1,2,2.8,2,4.7c0,1.7-0.7,3.4-2,4.7C71.3,23.5,69.7,24.2,67.9,24.2z"/>
	</g>
	<g>
		<path fill="#F5FFFA" d="M55.2,37c-3.7,0-6.7-3-6.7-6.6s3-6.6,6.7-6.6c3.7,0,6.6,3,6.6,6.6S58.9,37,55.2,37z"/>
	</g>
	<g>
		<path fill="#F5FFFA" d="M42.5,49.7c-1.7,0-3.3-0.6-4.6-1.8c-0.3-0.2-0.4-0.4-0.5-0.5l-0.2-0.2L37.1,47c0,0,0-0.1-0.1-0.1
			c-0.1-0.1-0.1-0.2-0.2-0.3c-0.1-0.1-0.2-0.3-0.2-0.4l-0.1-0.1c-0.1-0.2-0.2-0.4-0.2-0.6l0,0c-0.1-0.2-0.2-0.4-0.3-0.7
			C36,44.7,36,44.5,36,44.4c-0.1-0.4-0.1-0.8-0.1-1.1v-0.2c0-0.5,0-0.9,0.2-1.4c0.1-0.3,0.2-0.7,0.3-1l0-0.1l0-0.1
			c0.5-0.9,0.9-1.6,1.4-2.1c1.3-1.3,2.9-1.9,4.7-1.9s3.4,0.7,4.7,1.9c1.3,1.1,2,2.8,2,4.7c0,1.7-0.7,3.3-1.9,4.6
			C45.9,49,44.3,49.7,42.5,49.7z"/>
	</g>
	<g>
		<path fill="#F5FFFA" d="M45.6,76.3c-1.8,0-3.4-0.7-4.7-1.9c-1.3-1.1-2-2.8-2-4.7c0-1.7,0.7-3.3,1.9-4.6c1.3-1.3,3-2,4.7-2
			c1.8,0,3.4,0.7,4.7,1.9c1.3,1.1,2,2.8,2,4.7c0,1.7-0.7,3.4-2,4.7C49,75.6,47.4,76.3,45.6,76.3z"/>
	</g>
	<g>
		<path fill="#F5FFFA" d="M20.1,76.3c-1.8,0-3.4-0.7-4.7-1.9c-1.5-1.5-2.2-3.7-1.8-5.9c0.3-1.3,0.9-2.5,1.8-3.5
			c1.3-1.3,2.9-1.9,4.7-1.9c1.8,0,3.4,0.7,4.7,1.9c1.3,1.1,2,2.8,2,4.7s-0.7,3.5-2,4.7C23.5,75.6,21.9,76.3,20.1,76.3z"/>
	</g>
	<g>
		<path fill="#F5FFFA" d="M20.1,50.9c-1.8,0-3.4-0.7-4.7-1.9c-0.9-0.9-1.6-2.2-1.8-3.4c-0.4-2.2,0.3-4.4,1.8-5.9
			c1.3-1.3,2.9-1.9,4.7-1.9c1.8,0,3.4,0.7,4.7,1.9c1.3,1.1,2,2.8,2,4.7c0,1.8-0.7,3.4-2,4.7C23.5,50.2,21.9,50.9,20.1,50.9z"/>
	</g>
	<g>
		<path fill="#F5FFFA" d="M15.8,86.5c-0.3,0-0.5,0-0.8-0.1c-0.1,0-0.3,0-0.4,0h-0.1l-0.1,0C8.1,85.8,3.4,80,3.4,72.9V41
			c0-6.9,4.7-12.7,11-13.5c0.5-0.1,0.9-0.1,1.4-0.1h9.9v-13c0-7,4.7-12.8,11-13.5c0.4-0.1,0.9-0.1,1.3-0.1h34.3c0.4,0,0.9,0,1.3,0.1
			c6.3,0.7,11,6.5,11,13.5v31.9c0,7-4.7,12.8-11,13.5C73.2,60,72.7,60,72.3,60h-9.8v13c0,7.1-4.8,12.9-11.1,13.5l-0.1,0H15.8z
			 M14.8,31.2C10.4,31.8,7.1,36,7.1,41v31.9c0,5,3.3,9.2,7.7,9.8l0.1,0l0.1,0c0.1,0,0.4,0,0.6,0l34.4-0.1c0.1,0,0.2,0,0.3,0
			c0.2,0,0.4-0.1,0.6-0.1c4.4-0.6,7.6-4.7,7.6-9.8v-13H38c-0.3,0-0.5,0-0.8-0.1c-0.1,0-0.3,0-0.4,0h-0.1l-0.1,0
			c-6.3-0.7-11.1-6.5-11.1-13.5V31.1h-9.8c-0.1,0-0.2,0-0.3,0C15.2,31.2,15,31.2,14.8,31.2z M37.1,4.6c-4.4,0.6-7.6,4.7-7.6,9.8
			v31.9c0,5,3.3,9.2,7.7,9.8l0.1,0l0.1,0c0.1,0,0.4,0,0.6,0h34.3c0.1,0,0.2,0,0.3,0c0.2,0,0.4-0.1,0.6-0.1c4.4-0.6,7.6-4.7,7.6-9.8
			V14.4c0-5-3.3-9.2-7.7-9.8l-0.1,0l-0.1,0c-0.1,0-0.4,0-0.6,0H38c-0.1,0-0.2,0-0.3,0C37.5,4.6,37.3,4.6,37.1,4.6z"/>
	</g>
</g>
<line fill="none" stroke="#FFFFFF" stroke-width="4" stroke-miterlimit="10" x1="82.1" y1="65.5" x2="82.1" y2="95.2"/>
<line fill="none" stroke="#FFFFFF" stroke-width="4" stroke-miterlimit="10" x1="97" y1="80.3" x2="67.3" y2="80.3"/>
</svg>
