<?xml version="1.0" encoding="utf-8"?>
<!-- Generator: Adobe Illustrator 24.0.2, SVG Export Plug-In . SVG Version: 6.00 Build 0)  -->
<svg version="1.1" baseProfile="tiny" id="Layer_1" xmlns="http://www.w3.org/2000/svg" xmlns:xlink="http://www.w3.org/1999/xlink"
	 x="0px" y="0px" viewBox="0 0 100 100" xml:space="preserve">
<g>
	<g>
		<path fill="#F5FFFA" d="M74.8,31.6c-1.8,0-3.4-0.7-4.7-1.9c-1.3-1.3-1.9-2.9-1.9-4.7c0-1.8,0.7-3.4,1.9-4.7
			c1.3-1.3,2.9-1.9,4.7-1.9c1.8,0,3.4,0.7,4.7,1.9c1.3,1.3,1.9,2.9,1.9,4.7c0,1.8-0.7,3.4-1.9,4.7C78.3,30.9,76.6,31.6,74.8,31.6
			L74.8,31.6z"/>
	</g>
	<g>
		<circle fill="#F5FFFA" cx="62.1" cy="37.7" r="6.6"/>
	</g>
	<g>
		<path fill="#F5FFFA" d="M49.4,57c-1.8,0-3.4-0.7-4.7-1.9c-0.1-0.1-0.3-0.3-0.4-0.4l-0.2-0.3c-0.2-0.2-0.3-0.4-0.4-0.6
			c-0.1-0.2-0.2-0.3-0.3-0.5c-0.1-0.2-0.2-0.5-0.3-0.7c-0.1-0.2-0.1-0.4-0.2-0.6c0-0.2-0.1-0.3-0.1-0.4c-0.1-0.3-0.1-0.6-0.1-1l0,0
			l0-0.1c0-0.1,0-0.1,0-0.2c0-0.4,0-0.8,0.1-1.1c0.1-0.4,0.2-0.7,0.4-1.2c0.3-0.9,0.8-1.6,1.5-2.2c1.3-1.3,2.9-1.9,4.7-1.9
			c1.8,0,3.4,0.7,4.7,1.9c1.2,1.2,1.9,2.9,1.9,4.6l0,0.1c0,1.8-0.7,3.4-1.9,4.7C52.8,56.3,51.2,57,49.4,57C49.4,57,49.4,57,49.4,57z
			"/>
	</g>
	<g>
		<path fill="#F5FFFA" d="M52.5,83.6c-1.8,0-3.4-0.7-4.7-1.9c-1.3-1.3-1.9-2.9-1.9-4.7c0-1.8,0.7-3.4,1.9-4.7s2.9-1.9,4.7-1.9
			c1.8,0,3.4,0.7,4.7,1.9c1.3,1.3,1.9,2.9,1.9,4.7c0,1.8-0.7,3.4-1.9,4.7C56,82.9,54.3,83.6,52.5,83.6L52.5,83.6z"/>
	</g>
	<g>
		<path fill="#F5FFFA" d="M27.1,83.6c-1.8,0-3.4-0.7-4.7-1.9c-1.6-1.6-2.2-3.8-1.8-5.9c0.3-1.3,0.9-2.5,1.8-3.4
			c1.3-1.3,2.9-1.9,4.7-1.9s3.4,0.7,4.7,1.9c1.3,1.3,1.9,2.9,1.9,4.7c0,1.8-0.7,3.4-1.9,4.7C30.5,82.9,28.9,83.6,27.1,83.6
			C27.1,83.6,27.1,83.6,27.1,83.6z"/>
	</g>
	<g>
		<path fill="#F5FFFA" d="M27.1,58.2c-1.8,0-3.4-0.7-4.7-1.9c-0.9-0.9-1.6-2.1-1.8-3.4c-0.4-2.2,0.3-4.4,1.8-5.9
			c1.3-1.3,2.9-1.9,4.7-1.9s3.4,0.7,4.7,1.9c1.3,1.3,1.9,2.9,1.9,4.7c0,1.8-0.7,3.4-1.9,4.7C30.5,57.5,28.9,58.2,27.1,58.2
			L27.1,58.2z"/>
	</g>
	<g>
		<path fill="#F5FFFA" d="M22.7,93.9c-0.4,0-0.9,0-1.3-0.1c-6.4-0.7-11.1-6.6-11.1-13.6V48.3c0-7,4.8-12.9,11.1-13.6
			c0.4,0,0.9-0.1,1.3-0.1h9.8v-13c0-7,4.8-12.9,11.1-13.6C44.1,8.1,44.5,8,45,8h34.3c0.4,0,0.9,0,1.3,0.1
			c6.4,0.7,11.1,6.6,11.1,13.6v31.9c0,7-4.8,12.9-11.1,13.6c-0.4,0-0.9,0.1-1.3,0.1h-9.8v13c0,7-4.8,12.9-11.1,13.6
			c-0.4,0-0.9,0.1-1.3,0.1H22.7z M22.7,38.6c-0.3,0-0.6,0-0.8,0c-4.4,0.5-7.7,4.7-7.7,9.7v31.9c0,5,3.3,9.2,7.7,9.7
			c0.3,0,0.6,0,0.9,0L57,90c0.3,0,0.6,0,0.9,0c4.4-0.5,7.7-4.7,7.7-9.7v-13H45c-0.4,0-0.9,0-1.3-0.1c-6.4-0.7-11.1-6.6-11.1-13.6
			v-15H22.7z M45,11.9c-0.3,0-0.6,0-0.9,0c-4.4,0.5-7.7,4.7-7.7,9.7v31.9c0,5,3.3,9.2,7.7,9.7c0.3,0,0.6,0,0.9,0h34.3
			c0.3,0,0.6,0,0.9,0c4.4-0.5,7.7-4.7,7.7-9.7V21.7c0-5-3.3-9.2-7.7-9.7c-0.3,0-0.6,0-0.9,0H45z"/>
	</g>
</g>
</svg>
