<?xml version="1.0" encoding="utf-8"?>
<!-- Generator: Adobe Illustrator 24.0.2, SVG Export Plug-In . SVG Version: 6.00 Build 0)  -->
<svg version="1.1" baseProfile="tiny"
	 id="Layer_1" xmlns:cc="http://creativecommons.org/ns#" xmlns:dc="http://purl.org/dc/elements/1.1/" xmlns:inkscape="http://www.inkscape.org/namespaces/inkscape" xmlns:rdf="http://www.w3.org/1999/02/22-rdf-syntax-ns#" xmlns:sodipodi="http://sodipodi.sourceforge.net/DTD/sodipodi-0.dtd" xmlns:svg="http://www.w3.org/2000/svg"
	 xmlns="http://www.w3.org/2000/svg" xmlns:xlink="http://www.w3.org/1999/xlink" x="0px" y="0px" viewBox="0 0 100 100"
	 xml:space="preserve">
<path fill="#F5FFFA" d="M9.2,96.3l0.1-1.3c0.1-2.6,0.3-5.4,1.5-7.9c3.1-6.9,10.9-10.6,17.8-11.5c0,0,0,0,0,0
	c-1.4-2.3-3.5-5.8-5.3-6.5c-0.3-0.1-0.7-0.1-1.1-0.1l-1.9,0l0-1.3c0-1.1,0.2-2.9,0.7-4.2c0.5-1.2,1.1-2.1,1.9-2.8
	c1.3-1.2,3.2-1.8,5.1-1.8c1.9,0,3.7,0.6,5.2,1.6c0.8,0.6,1.5,1.2,2.1,1.8c1.3,1.2,2.1,2,3.8,2c0.2,0,0.5,0,0.7,0
	c1.1-0.1,2.3-1.2,3.4-2.2c0.5-0.5,1-0.9,1.5-1.3c0.6-0.5,1.2-0.8,1.9-1.1v-4.9h-4.4l6.1-7.7h-8.1c-2.3,0-2.7-0.4-3.9-2.6l-0.5-0.9
	l-8.1-14.2c-1.1-1.9-1.7-2.9-1.7-3.6c-0.1-0.9,0.4-1.7,0.7-2.3l7.8-13.6c0.2-0.3,0.3-0.6,0.6-1c1-1.9,2-3.6,2.7-4.3l0.2-0.2L38,4.1
	c0.5-0.2,1.2-0.4,3.7-0.4c0.8,0,1.6,0,2.3,0c0.5,0,0.9,0,1.1,0h14.7c2.3,0,2.7,0.4,4,2.7c0.2,0.3,0.3,0.6,0.6,1l8.4,14.7
	c0.1,0.1,0.1,0.2,0.2,0.4c0.6,0.9,1.3,2.2,1.1,3.4l0,0.2l-3,5.4l-6,10.5c-0.1,0.1-0.2,0.3-0.3,0.6c-1.3,2.4-2.1,3.6-2.9,4
	c-0.5,0.2-1,0.2-1.6,0.2l-8.5,0l6.1,7.7h-4.4v4.8c1.4,0.6,2.4,1.6,3.4,2.5c1.3,1.2,2.4,2.2,3.9,2.2l0.1,0c1.8,0,2.6-0.8,3.9-2
	c0.5-0.5,1.1-1,1.7-1.5c1.6-1.2,3.3-1.8,5.4-1.8c4.9,0,7.7,3.2,7.8,8.8l0,1.3l-1.9,0c-0.5,0-0.8,0-1.1,0.1c-1.8,0.7-3.9,4.2-5.3,6.5
	c0,0,0,0,0,0c6.9,0.9,14.7,4.6,17.8,11.5c1.1,2.4,1.2,4.6,1.4,7l0.2,2.2H9.2z M85.9,91.6c-1.1-7.7-10.8-11.7-17.7-11.8h-3l0-1.3
	c0-1.9,0.1-2.4,1-3.3c0.3-0.3,0.7-0.8,1.2-1.7c0.3-0.5,0.6-0.9,0.8-1.4c1.6-2.7,3.4-5.6,6.5-7.2c-0.5-1.2-1.3-1.6-2.9-1.6
	c-0.7,0-1.1,0-1.5,0.2c-0.8,0.3-1.9,1.3-2.8,2.1c-0.5,0.5-1,0.9-1.5,1.3c-1.5,1.1-3.3,1.8-5.2,1.8c-0.7,0-1.3-0.1-2-0.2
	c-2-0.5-3.5-1.8-4.9-3.1c-0.8-0.7-1.5-1.4-2.2-1.7c-0.4-0.2-1.2-0.3-2-0.3c-0.4,0-0.7,0-1,0.1c-1,0.2-2.2,1.3-3.3,2.3
	c-0.4,0.4-0.8,0.7-1.2,1c-1.7,1.4-3.2,1.9-5.4,1.9l-0.3,0c-3.3-0.1-5.1-1.8-6.6-3.2c-0.8-0.8-1.5-1.5-2.4-1.8
	c-0.5-0.2-0.9-0.2-1.7-0.2c-1.6,0-2.4,0.4-2.9,1.6c3.1,1.6,4.9,4.5,6.5,7.2c0.3,0.5,0.6,0.9,0.8,1.4c0.6,0.9,1,1.4,1.2,1.7
	c0.8,1,1,1.4,1,3.3l0,1.3h-3c-7,0-16.6,4.1-17.7,11.8H85.9z M40.3,42.2c0.1,0,0.2,0,0.5,0l0.5,0h17.6c0.3,0,0.9,0,1-0.1
	c0.1-0.1,0.5-0.7,0.9-1.4c0.2-0.4,0.5-0.9,0.8-1.4L67.3,29c0.1-0.2,0.3-0.4,0.4-0.7c0.4-0.6,1.4-2.3,1.6-2.9L67,21.2l-5.5-9.6
	c-0.1-0.1-0.2-0.3-0.3-0.6c-0.3-0.5-1.1-2.1-1.5-2.5c-0.1,0-0.2,0-0.5,0l-12.9,0l-6,0.1c-0.5,0.6-1.3,2-1.7,2.7
	c-0.2,0.3-0.3,0.7-0.5,0.9l-5.4,9.4c-0.1,0.2-0.3,0.4-0.4,0.7c-0.4,0.6-1.5,2.4-1.6,3c0.1,0.3,0.6,1.1,1.3,2.4l7.1,12.4l0.2,0.4
	C39.5,40.9,40,41.9,40.3,42.2z M55.1,79.9l3.1-6.4l4.4,1.5l-3.1,6.4L55.1,79.9z M37.5,75l4.4-1.5l3.1,6.4l-4.4,1.5L37.5,75z
	 M47.7,80.9V74h4.7v6.9H47.7z"/>
</svg>
