<svg height='100px' width='100px'  fill="#000000" xmlns="http://www.w3.org/2000/svg" xmlns:xlink="http://www.w3.org/1999/xlink" version="1.1" x="0px" y="0px" viewBox="0 0 66 66" enable-background="new 0 0 66 66" xml:space="preserve"><g><path d="M41.349,18.604c0.001-0.037,0.01-0.071,0.01-0.109c0-0.806-0.326-1.537-0.851-2.071c2.333-3.223,3.613-7.516,4.026-10.621   c0.097-0.724-0.593-1.3-1.279-1.089c-7.323,2.201-9.352,0.035-10.98-1.704c-2.286-2.442-4.131-3.536-10.469,1.903   c-0.294,0.252-0.416,0.651-0.313,1.025c0.845,3.064,1.683,7.215,4.005,10.492c-0.529,0.546-0.857,1.303-0.857,2.159   c0,0.007,0.002,0.013,0.002,0.02C15.423,25.474,8.337,43.175,8.337,54.195c0,3.486,2.783,6.354,8.049,8.293   c4.399,1.621,10.3,2.513,16.613,2.513c12.276,0,24.663-3.341,24.663-10.806C57.663,43.172,50.574,25.465,41.349,18.604z    M26.642,18.495c0-0.527,0.429-0.956,0.955-0.956h10.808c0.526,0,0.955,0.429,0.955,1.049c0,0.527-0.429,0.956-0.955,0.956H27.597   C27.071,19.545,26.642,19.116,26.642,18.495z M23.587,6.024c4.906-4.123,5.698-3.28,7.229-1.646   c1.681,1.795,4.167,4.452,11.478,2.671c-0.555,2.692-1.739,6.055-3.63,8.517c-0.433-0.038-10.892-0.038-11.32,0   C25.282,12.848,24.406,9.128,23.587,6.024z M33,63.001c-11.262,0-22.662-3.025-22.662-8.806c0-10.378,6.512-26.918,15.06-33.652   c0.542,0.61,1.322,1.002,2.2,1.002h10.808c0.873,0,1.651-0.388,2.192-1.007c8.55,6.73,15.066,23.276,15.066,33.657   C55.663,59.976,44.262,63.001,33,63.001z"></path></g></svg>