<?xml version="1.0" encoding="utf-8"?>
<!-- Generator: Adobe Illustrator 24.0.2, SVG Export Plug-In . SVG Version: 6.00 Build 0)  -->
<svg version="1.1" baseProfile="tiny" xmlns="http://www.w3.org/2000/svg" xmlns:xlink="http://www.w3.org/1999/xlink" x="0px"
	 y="0px" viewBox="0 0 100 100" xml:space="preserve">
<g id="Layer_1">
	<title>24</title>
	<path fill="#F5FFFA" d="M15.7,55.9C5.6,45.5,5.6,29.4,15.6,19c4.7-4.8,11.2-7.6,17.9-7.6c5.1,0,10.6,2.7,16.4,8
		c5-4.5,11.5-7,18.2-7.1h0.1c6,0,11.8,2.4,16,6.7c4.9,4.9,7.5,11.5,7.5,18.4c0,6.8-2.7,13.5-7.5,18.3L50,89.1L15.7,55.9z M17.9,51.6
		c0.3,0.4,0.6,0.7,1,1L50,82.8l31.2-30.2c4-4,6.2-9.4,6.1-15.1c0-5.7-2.2-11.2-6.2-15.3c-3.3-3.4-8-5.3-12.8-5.3h-0.1
		C62,17,56,19.6,51.6,24.1L50,25.7l-1.6-1.6c-5.7-5.5-10.6-8.2-14.8-8.2c-5.5,0-10.9,2.3-14.7,6.3c-6.4,6.6-8,16.5-4,24.8h12.6
		l8.4-12.9l11.2,21.3l11.5-18.8L70,47.5l-3.2,3.2l-7.3-7L46.8,64.6L35.5,43.1L30,51.6H17.9z"/>
</g>
<g id="Layer_2">
	<line fill="none" stroke="#FFFFFF" stroke-width="4" stroke-miterlimit="10" x1="85.1" y1="69.6" x2="85.1" y2="99.4"/>
	<line fill="none" stroke="#FFFFFF" stroke-width="4" stroke-miterlimit="10" x1="100" y1="84.5" x2="70.2" y2="84.5"/>
</g>
</svg>
