<?xml version="1.0" encoding="utf-8"?>
<!-- Generator: Adobe Illustrator 24.0.2, SVG Export Plug-In . SVG Version: 6.00 Build 0)  -->
<svg version="1.1" baseProfile="tiny" id="Layer_1" xmlns="http://www.w3.org/2000/svg" xmlns:xlink="http://www.w3.org/1999/xlink"
	 x="0px" y="0px" viewBox="0 0 100 100" xml:space="preserve">
<path fill="#F5FFFA" d="M47.2,85.4c-1.1,0-1.9-0.9-1.9-1.9V65.8l-16.5-9.6c-0.4-0.3-0.8-0.7-0.9-1.2c-0.1-0.5-0.1-1,0.2-1.5
	c0.3-0.6,1-1,1.7-1c0.3,0,0.7,0.1,1,0.3l16.5,9.6l16.6-9.6c0.3-0.2,0.6-0.3,1-0.3c0.7,0,1.3,0.4,1.7,1c0.3,0.4,0.3,1,0.2,1.5
	s-0.5,0.9-0.9,1.2l-16.6,9.6v17.7C49.2,84.6,48.3,85.4,47.2,85.4z"/>
<path fill="#F5FFFA" d="M71.5,60.3c-1.1,0-1.9-0.9-1.9-1.9V40.7L53,31.1c-0.9-0.5-1.2-1.7-0.7-2.6c0.3-0.6,1-1,1.7-1
	c0.3,0,0.7,0.1,1,0.3l16.5,9.6l16.6-9.6c0.3-0.2,0.6-0.3,1-0.3c0.7,0,1.3,0.4,1.7,1c0.5,0.9,0.2,2.1-0.7,2.6l-16.6,9.6v17.7
	C73.4,59.4,72.5,60.3,71.5,60.3z"/>
<path fill="#F5FFFA" d="M22.9,60.2c-1.1,0-1.9-0.9-1.9-1.9V40.6L4.4,31c-0.9-0.5-1.2-1.7-0.7-2.6c0.3-0.6,1-1,1.7-1
	c0.3,0,0.7,0.1,1,0.3l16.5,9.6l16.6-9.6c0.3-0.2,0.6-0.3,1-0.3c0.7,0,1.3,0.4,1.7,1c0.3,0.4,0.3,1,0.2,1.5c-0.1,0.5-0.5,0.9-0.9,1.2
	l-16.6,9.6v17.7C24.8,59.3,24,60.2,22.9,60.2z"/>
<g>
	<path fill="#F5FFFA" d="M25.2,76.5V62.7L22.9,64L0.8,51.3V25.8L22.9,13L45,25.8v13.8l2.2-1.3l2.1,1.2V25.8l22.1-12.8l22.1,12.8
		v25.5L71.5,64.1l-2.1-1.2v13.7L47.2,89.3L25.2,76.5z M47.2,84l17.5-10.1V53.6L47.2,43.5L29.7,53.6v20.2L47.2,84z M71.5,58.8
		L89,48.7l0-20.2L71.5,18.3L53.9,28.4v13.7L69.3,51v6.6L71.5,58.8z M22.9,58.8l2.2-1.3V51l15.3-8.8V28.4L22.9,18.3L5.4,28.4v20.2
		L22.9,58.8z"/>
</g>
</svg>
