<?xml version="1.0" encoding="utf-8"?>
<!-- Generator: Adobe Illustrator 24.0.2, SVG Export Plug-In . SVG Version: 6.00 Build 0)  -->
<svg version="1.1" baseProfile="tiny" id="Layer_1" xmlns="http://www.w3.org/2000/svg" xmlns:xlink="http://www.w3.org/1999/xlink"
	 x="0px" y="0px" viewBox="0 0 100 100" xml:space="preserve">
<path fill="#F5FFFA" d="M47.3,81.8c-1.1,0-1.9-0.9-1.9-1.9V62.2l-16.5-9.6c-0.4-0.3-0.8-0.7-0.9-1.2c-0.1-0.5-0.1-1,0.2-1.5
	c0.3-0.6,1-1,1.7-1c0.3,0,0.7,0.1,1,0.3l16.5,9.6L64,49.3c0.3-0.2,0.6-0.3,1-0.3c0.7,0,1.3,0.4,1.7,1c0.3,0.4,0.3,1,0.2,1.5
	s-0.5,0.9-0.9,1.2l-16.6,9.6v17.7C49.3,80.9,48.4,81.8,47.3,81.8z"/>
<path fill="#F5FFFA" d="M71.6,56.6c-1.1,0-1.9-0.9-1.9-1.9V37l-16.5-9.6c-0.9-0.5-1.2-1.7-0.7-2.6c0.3-0.6,1-1,1.7-1
	c0.3,0,0.7,0.1,1,0.3l16.5,9.6l16.6-9.6c0.3-0.2,0.6-0.3,1-0.3c0.7,0,1.3,0.4,1.7,1c0.5,0.9,0.2,2.1-0.7,2.6L73.5,37v17.7
	C73.5,55.8,72.6,56.6,71.6,56.6z"/>
<path fill="#F5FFFA" d="M23,56.6c-1.1,0-1.9-0.9-1.9-1.9V37L4.5,27.4c-0.9-0.5-1.2-1.7-0.7-2.6c0.3-0.6,1-1,1.7-1
	c0.3,0,0.7,0.1,1,0.3L23,33.6L39.6,24c0.3-0.2,0.6-0.3,1-0.3c0.7,0,1.3,0.4,1.7,1c0.3,0.4,0.3,1,0.2,1.5c-0.1,0.5-0.5,0.9-0.9,1.2
	L24.9,37v17.7C24.9,55.7,24.1,56.6,23,56.6z"/>
<g>
	<path fill="#F5FFFA" d="M25.2,72.9V59.1L23,60.4L0.9,47.7V22.1L23,9.4l22.1,12.8v13.8l2.2-1.3l2.1,1.2V22.2L71.6,9.4l22.1,12.8
		v25.5L71.6,60.4l-2.1-1.2v13.7L47.3,85.6L25.2,72.9z M47.3,80.4l17.5-10.1V50L47.3,39.9L29.8,50v20.2L47.3,80.4z M71.6,55.2
		l17.5-10.1l0-20.2L71.6,14.7L54,24.8v13.7l15.4,8.9V54L71.6,55.2z M23,55.1l2.2-1.3v-6.5l15.3-8.8V24.8L23,14.7L5.5,24.8V45
		L23,55.1z"/>
</g>
<line fill="none" stroke="#FFFFFF" stroke-width="4" stroke-miterlimit="10" x1="85.1" y1="69.3" x2="85.1" y2="99"/>
<line fill="none" stroke="#FFFFFF" stroke-width="4" stroke-miterlimit="10" x1="100" y1="84.1" x2="70.3" y2="84.1"/>
</svg>
