<?xml version="1.0" encoding="utf-8"?>
<!-- Generator: Adobe Illustrator 24.0.2, SVG Export Plug-In . SVG Version: 6.00 Build 0)  -->
<svg version="1.1" baseProfile="tiny" id="Layer_1" xmlns="http://www.w3.org/2000/svg" xmlns:xlink="http://www.w3.org/1999/xlink"
	 x="0px" y="0px" viewBox="0 0 100 100" xml:space="preserve">
<g>
	<path fill="#F5FFFA" d="M52.6,21.4v-3.3H55c1.5,0,2.6-1.2,2.6-2.6c0-1.5-1.2-2.6-2.6-2.6H45c-1.5,0-2.6,1.2-2.6,2.6
		s1.2,2.6,2.6,2.6h2.3v3.3c-16.9,1.3-30.3,15.5-30.3,32.8c0,18.2,14.8,32.9,32.9,32.9s32.9-14.8,32.9-32.9
		C82.9,36.9,69.6,22.8,52.6,21.4z M50,81.9c-15.2,0-27.7-12.4-27.7-27.7S34.8,26.6,50,26.6c15.2,0,27.7,12.4,27.7,27.7
		S65.3,81.9,50,81.9z"/>
	<path fill="#F5FFFA" d="M68.3,24.2c1.5,0.9,2.9,1.9,4.3,3.1c0.5,0.4,1.1,0.6,1.7,0.6c0.8,0,1.5-0.3,2-0.9c0.9-1.1,0.8-2.8-0.3-3.7
		c-1.5-1.3-3.2-2.5-4.9-3.5c-1.2-0.8-2.9-0.4-3.6,0.9C66.6,21.8,67,23.5,68.3,24.2z"/>
	<path fill="#F5FFFA" d="M61.9,36.9c-1.2-0.8-2.8-0.5-3.7,0.7L47.8,52.7c-0.8,1.2-0.5,2.8,0.7,3.7c0.5,0.3,1,0.5,1.5,0.5
		c0.8,0,1.7-0.4,2.2-1.1l10.4-15.1C63.4,39.4,63.1,37.7,61.9,36.9z"/>
</g>
</svg>
