<?xml version="1.0" encoding="utf-8"?>
<!-- Generator: Adobe Illustrator 24.0.2, SVG Export Plug-In . SVG Version: 6.00 Build 0)  -->
<svg version="1.1" baseProfile="tiny" id="Layer_1" xmlns="http://www.w3.org/2000/svg" xmlns:xlink="http://www.w3.org/1999/xlink"
	 x="0px" y="0px" viewBox="0 0 100 100" xml:space="preserve">
<g>
	<path fill="#F5FFFA" d="M42.5,13.9v-3.3h2.3c1.5,0,2.6-1.2,2.6-2.6c0-1.5-1.2-2.6-2.6-2.6h-10c-1.5,0-2.6,1.2-2.6,2.6
		s1.2,2.6,2.6,2.6h2.3v3.3C20.4,15.2,7,29.4,7,46.7c0,18.2,14.8,32.9,32.9,32.9s32.9-14.8,32.9-32.9C72.8,29.4,59.5,15.2,42.5,13.9z
		 M39.9,74.4c-15.2,0-27.7-12.4-27.7-27.7S24.7,19,39.9,19c15.2,0,27.7,12.4,27.7,27.7S55.2,74.4,39.9,74.4z"/>
	<path fill="#F5FFFA" d="M58.2,16.7c1.5,0.9,2.9,1.9,4.3,3.1c0.5,0.4,1.1,0.6,1.7,0.6c0.8,0,1.5-0.3,2-0.9c0.9-1.1,0.8-2.8-0.3-3.7
		c-1.5-1.3-3.2-2.5-4.9-3.5c-1.2-0.8-2.9-0.4-3.6,0.9C56.5,14.3,56.9,15.9,58.2,16.7z"/>
	<path fill="#F5FFFA" d="M51.8,29.4c-1.2-0.8-2.8-0.5-3.7,0.7L37.7,45.2c-0.8,1.2-0.5,2.8,0.7,3.7c0.5,0.3,1,0.5,1.5,0.5
		c0.8,0,1.7-0.4,2.2-1.1L52.5,33C53.3,31.8,53,30.2,51.8,29.4z"/>
</g>
<line fill="none" stroke="#FFFFFF" stroke-width="4" stroke-miterlimit="10" x1="84.1" y1="68.9" x2="84.1" y2="98.6"/>
<line fill="none" stroke="#FFFFFF" stroke-width="4" stroke-miterlimit="10" x1="99" y1="83.7" x2="69.3" y2="83.7"/>
</svg>
