<svg height='100px' width='100px'  fill="#000000" xmlns="http://www.w3.org/2000/svg" xmlns:xlink="http://www.w3.org/1999/xlink" version="1.1" x="0px" y="0px" viewBox="0 0 160 160" style="enable-background:new 0 0 160 160;" xml:space="preserve"><path d="M154.525,35.334c-0.471-0.649-1.224-1.034-2.025-1.034h-11.76c-2.124-2.234-5.111-3.634-8.422-3.634h-6.875  c-0.025,0-0.053,0-0.078,0h-6.876c-3.311,0-6.297,1.4-8.422,3.634h-11.76c-0.802,0-1.556,0.385-2.025,1.034  c-0.47,0.65-0.6,1.486-0.35,2.248c0.354,1.076,1.008,2.786,2.016,4.496H37.778c-6.294-0.087-12.179,2.369-16.639,6.798  c-0.67,0.665-1.289,1.367-1.867,2.094l-0.97,0.556C10.097,56.229,5,65.049,5,74.545v29.167c0,1.381,1.119,2.5,2.5,2.5  s2.5-1.119,2.5-2.5V74.545c0-4.887,1.666-9.549,4.577-13.282c-0.265,1.427-0.405,2.888-0.405,4.373v5.944  c0,3.831,0.943,7.646,2.727,11.029l2.918,5.536l-3.764,7.565c-0.241,0.484-0.366,1.019-0.366,1.56v28.564c0,1.933,1.567,3.5,3.5,3.5  h11.158c1.868,0,3.407-1.467,3.496-3.333l0.493-10.313l6.208,11.777c0.606,1.149,1.798,1.868,3.097,1.868h11.402  c1.211,0,2.336-0.626,2.975-1.655s0.699-2.316,0.16-3.401l-9.638-19.415c1.126,0.201,2.275,0.314,3.441,0.314  c5.838,0,11.224-2.57,14.892-6.983c3.374,0.533,6.859,0.814,10.39,0.814c0.556,0,1.103-0.024,1.654-0.035l2.996,27.244  c0.195,1.774,1.694,3.117,3.479,3.117h10.153c1.869,0,3.409-1.47,3.496-3.337l1.239-26.557l2.147,26.674  c0.146,1.818,1.664,3.22,3.488,3.22h10.898c1.933,0,3.5-1.567,3.5-3.5v-41.25c2.33-1.993,4.396-4.138,6.063-6.261h2.484  c4.774,0,8.658-3.897,8.658-8.688v-6.021l4.657-6.064c1.163-1.512,1.803-3.396,1.803-5.306v-4.628  c0.302,0.037,0.598,0.062,0.878,0.062c0.686,0,1.301-0.1,1.831-0.241c4.896-1.312,7.357-7.329,8.188-9.855  C155.125,36.819,154.995,35.984,154.525,35.334z M130.518,62.424v7.211c0,0.931-0.744,1.688-1.658,1.688h-6.911  c-0.914,0-1.657-0.758-1.657-1.688v-7.211c0-0.771-0.255-1.521-0.725-2.132l-5.385-7.009c-0.226-0.295-0.351-0.664-0.351-1.04v-9.87  c0-2.596,2.09-4.708,4.658-4.708h6.876c0.025,0,0.053,0,0.078,0h6.875c2.569,0,4.659,2.112,4.659,4.708v9.87  c0,0.375-0.125,0.744-0.353,1.041l-5.383,7.008C130.773,60.904,130.518,61.653,130.518,62.424z M102.115,39.3h5.137  c-0.242,0.889-0.382,1.818-0.406,2.778h-2.453C103.609,41.502,102.82,40.541,102.115,39.3z M27.008,122.334h-4.322V98.092  l1.152-2.316l4.071,7.723L27.008,122.334z M51.98,100.177c-1.68,0-3.313-0.295-4.856-0.85c1.609-1.626,3.176-3.486,4.588-5.652  c2.889,1.351,6.019,2.455,9.307,3.306C58.497,99.025,55.34,100.177,51.98,100.177z M88.526,122.334l-2.616-23.795  c2.542-0.27,5.03-0.659,7.458-1.171l-1.165,24.966H88.526z M113.313,122.334h-4.169l-2.614-32.488  c-0.125-1.562-1.273-2.85-2.81-3.153c-3.103-0.613-4.676-2.756-4.676-6.368c0-1.933-1.567-3.5-3.5-3.5s-3.5,1.567-3.5,3.5  c0,4.151,1.352,7.22,3.326,9.376c-5.645,1.528-11.708,2.308-18.11,2.308c-8.134,0-15.946-1.615-22.367-4.578  c2.116-5.56,3.151-12.673,2.085-22.022c-0.22-1.92-1.944-3.311-3.874-3.081c-1.921,0.219-3.3,1.954-3.081,3.874  c1.979,17.354-4.14,25.176-10.386,30.539c-1.216,1.043-1.567,2.777-0.855,4.212l10.614,21.382H45.75L23.091,79.346  c-1.256-2.382-1.919-5.067-1.919-7.766v-5.944c0-4.468,1.74-8.656,4.899-11.793c3.098-3.076,7.19-4.766,11.561-4.766  c0.04,0,0.081,0,0.121,0h69.078v3.166c0,1.911,0.64,3.795,1.801,5.305l4.659,6.065v6.021c0,3.325,1.872,6.216,4.612,7.676  c-0.964,0.945-2.046,1.916-3.271,2.891c-0.045,0.036-0.078,0.08-0.121,0.118c-0.1,0.088-0.196,0.179-0.285,0.279  c-0.069,0.076-0.133,0.154-0.194,0.235c-0.075,0.099-0.144,0.2-0.208,0.306c-0.054,0.09-0.103,0.18-0.148,0.273  c-0.053,0.109-0.101,0.221-0.142,0.336c-0.036,0.1-0.067,0.199-0.094,0.301c-0.03,0.114-0.055,0.229-0.073,0.348  c-0.018,0.115-0.028,0.229-0.035,0.345c-0.004,0.066-0.02,0.129-0.02,0.196V122.334z M145.394,42.605  c-0.436,0.116-0.911,0.065-1.416-0.117v-0.115c0-1.065-0.155-2.093-0.422-3.074h5.137C147.68,41.085,146.49,42.312,145.394,42.605z"></path></svg>