<svg height='100px' width='100px'  fill="#000000" xmlns="http://www.w3.org/2000/svg" xmlns:xlink="http://www.w3.org/1999/xlink" version="1.1" x="0px" y="0px" viewBox="0 0 60 48" enable-background="new 0 0 60 48" xml:space="preserve"><path fill="#000000" d="M59.97,10.58c0-0.01-0.01-0.02-0.01-0.03c-0.02-0.07-0.05-0.14-0.09-0.21c-0.02-0.03-0.04-0.05-0.05-0.07  c-0.03-0.05-0.06-0.09-0.1-0.13c-0.03-0.03-0.06-0.05-0.09-0.07c-0.03-0.03-0.06-0.06-0.1-0.08c-0.01-0.01-0.02-0.01-0.03-0.01  c-0.01,0-0.01-0.01-0.02-0.02l-18-9.83c-0.29-0.16-0.64-0.16-0.94-0.01l-40,20.64c-0.01,0.01-0.02,0.02-0.04,0.03  c-0.02,0.01-0.03,0.01-0.05,0.02c-0.03,0.02-0.05,0.05-0.08,0.07c-0.03,0.02-0.06,0.04-0.08,0.07c-0.04,0.04-0.07,0.09-0.1,0.13  c-0.02,0.03-0.04,0.05-0.05,0.08c-0.03,0.06-0.06,0.12-0.08,0.19c-0.01,0.02-0.02,0.03-0.02,0.05C0.01,21.47,0,21.56,0,21.64v16.71  c0,0.39,0.23,0.75,0.59,0.91l19,8.64c0.01,0.01,0.03,0,0.05,0.01C19.75,47.97,19.87,48,20,48c0.09,0,0.17-0.01,0.26-0.04  c0.03-0.01,0.05-0.02,0.08-0.03c0.04-0.02,0.08-0.03,0.12-0.05l39-20.44c0.33-0.17,0.54-0.51,0.54-0.89V10.83  C60,10.74,59.99,10.66,59.97,10.58z M40.99,2.13l15.84,8.65L19.98,28.9L3.32,21.57L40.99,2.13z M2,23.21l17,7.87v14.36L2,37.71  V23.21z M21,45.35V31.16l37-18.7v13.5L21,45.35z"></path></svg>