<svg height='100px' width='100px'  fill="#000000" xmlns:dc="http://purl.org/dc/elements/1.1/" xmlns:cc="http://creativecommons.org/ns#" xmlns:rdf="http://www.w3.org/1999/02/22-rdf-syntax-ns#" xmlns:svg="http://www.w3.org/2000/svg" xmlns="http://www.w3.org/2000/svg" xmlns:sodipodi="http://sodipodi.sourceforge.net/DTD/sodipodi-0.dtd" xmlns:inkscape="http://www.inkscape.org/namespaces/inkscape" version="1.1" x="0px" y="0px" viewBox="0 0 100 100"><g transform="translate(0,-952.36218)"><path style="text-indent:0;text-transform:none;direction:ltr;block-progression:tb;baseline-shift:baseline;color:#000000;enable-background:accumulate;" d="m 49.687501,959.37489 a 2.0001999,2.0001999 0 0 0 -0.3437,0.0937 l -31.249999,11 a 2.0001999,2.0001999 0 0 0 -1.25,1.3125 c -4.0899,13.39842 -3.87,28.75131 1.3124,42.31251 5.1825,13.5612 15.426199,25.3441 31.156299,31.1563 a 2.0001999,2.0001999 0 0 0 1.375,0 c 15.7301,-5.8122 25.9738,-17.5951 31.156298,-31.1563 5.1824,-13.5612 5.4023,-28.91409 1.3124,-42.31251 a 2.0001999,2.0001999 0 0 0 -1.25,-1.3125 l -31.249999,-11 a 2.0001999,2.0001999 0 0 0 -0.9687,-0.0937 z m 0.3125,4.09375 29.5625,10.40625 c 3.542598,12.32575 3.248898,26.43621 -1.4687,38.78131 -4.7546,12.4416 -13.8869,23.0446 -28.0938,28.5312 -14.2069,-5.4866 -23.3391,-16.0896 -28.093799,-28.5312 -4.7177,-12.3451 -5.0113,-26.45557 -1.4687,-38.78131 l 29.562499,-10.40625 z" fill="#000000" fill-opacity="1" marker="none" visibility="visible" display="inline" overflow="visible"></path></g></svg>