<svg height='100px' width='100px'  fill="#000000" xmlns="http://www.w3.org/2000/svg" data-name="Слой 3" viewBox="0 0 130.48309 174.38185" x="0px" y="0px"><title>103</title><path d="M122.81915,237.19092a5.629,5.629,0,0,1-5.34576-7.36021l21.00679-64.686-48.59781-4.31894a5.62082,5.62082,0,0,1-3.48023-9.56279l86.81372-86.80589a5.61711,5.61711,0,0,1,9.312,5.71025L161.521,134.84942l48.59782,4.31893a5.62009,5.62009,0,0,1,3.48023,9.5628L126.78536,235.541A5.60462,5.60462,0,0,1,122.81915,237.19092ZM95.7337,153.28915l46.4697,4.1269a5.62008,5.62008,0,0,1,4.84411,7.32886L128.208,222.76835l76.05949-76.06342-46.4697-4.12689a5.61478,5.61478,0,0,1-4.8441-7.32887L171.7932,77.22966Zm113.664-6.12567h0Z" transform="translate(-84.75846 -62.80908)"></path></svg>