<svg height='100px' width='100px'  fill="#000000" xmlns="http://www.w3.org/2000/svg" xmlns:xlink="http://www.w3.org/1999/xlink" version="1.1" x="0px" y="0px" viewBox="0 0 100 100" enable-background="new 0 0 100 100" xml:space="preserve"><path fill-rule="evenodd" clip-rule="evenodd" d="M59.725,4.599c9.234,0,17.184,0.867,23.85,2.6c7.602,2,11.418,4.818,11.451,8.451  v54.35l-0.5,0.699c-1.6,2-5.018,3.684-10.25,5.051c-5.566,1.467-12.217,2.334-19.951,2.6l-0.35,0.801h-0.1  c-1.434,2.566-3.25,4.934-5.449,7.1c-6.033,6.1-13.418,9.15-22.15,9.15c-8.633,0-16.033-3.051-22.201-9.15  c-6.066-6.066-9.1-13.449-9.1-22.15c0-8.633,3.033-16.016,9.1-22.15c3.068-3,6.451-5.283,10.15-6.85l-0.1-0.1l1.051-0.801V18.3  c-0.467-0.734-0.701-1.584-0.701-2.551c0-1.199,0.4-2.334,1.201-3.4c1.633-2.066,5.049-3.783,10.25-5.15  C42.592,5.466,50.525,4.599,59.725,4.599z M29.475,15.749c-0.057,1.354,0.193,2.172,0.75,2.449l-0.049,0.15  c1.5,0.9,3.699,1.717,6.6,2.451c6.299,1.699,13.949,2.549,22.949,2.549c5.801,0,11.051-0.35,15.75-1.049l0.951-0.15l0.299,1.949  l-1,0.15c-4.967,0.732-10.299,1.1-16,1.1c-9.066,0-16.883-0.867-23.449-2.6c-2.5-0.633-4.533-1.334-6.1-2.1v12.699  c1.799-0.367,3.832-0.549,6.1-0.549c7.832,0,14.582,2.482,20.25,7.449c0.332,0.232,0.684,0.533,1.049,0.9h2.15  c9.168,0,16.816-0.834,22.951-2.5c3.365-0.867,5.799-1.816,7.299-2.85h0.051V20.3c-0.367,0.199-0.768,0.398-1.201,0.6l-0.898,0.4  l-0.852-1.801l0.9-0.449c0.834-0.4,1.518-0.783,2.051-1.15v-2.25c-0.066-0.268-0.451-0.633-1.15-1.1  c-1.367-0.867-3.551-1.701-6.551-2.5c-6.266-1.635-13.799-2.451-22.6-2.451c-8.766,0-16.283,0.816-22.549,2.451  c-4.168,1.066-6.684,2.199-7.551,3.398c-0.084,0.057-0.133,0.131-0.15,0.227C29.475,15.702,29.475,15.728,29.475,15.749z   M26.176,39.698c-3.068,1.301-5.918,3.234-8.551,5.801c-5.1,5.166-7.65,11.367-7.65,18.6c0,7.301,2.551,13.5,7.65,18.6  c5.133,5.135,11.35,7.701,18.65,7.701c7.299,0,13.5-2.566,18.6-7.701c2.467-2.398,4.316-5.016,5.551-7.85  c1.467-3.299,2.199-6.883,2.199-10.75c0-1.533-0.133-3.066-0.4-4.6c-0.832-5.268-3.283-9.934-7.35-14l-1.6-1.449  c-4.768-4.168-10.434-6.25-17-6.25c-1.834,0-3.434,0.133-4.801,0.398l-3,0.701l-2.299,0.85V39.698z M26.875,57.599  c0-1.699,0.383-3.166,1.15-4.4c0.367-0.766,0.934-1.533,1.699-2.299c1.201-1.133,2.533-1.9,4-2.301V43.05h5v5.199  c1.768,0.334,3.301,0.934,4.6,1.801c1.367,0.865,2.5,2,3.4,3.398l1.4,2.051l-4.15,2.801l-1.4-2.102c-0.533-0.799-1.199-1.467-2-2  c-0.898-0.566-1.865-0.916-2.898-1.049h-1.4c-1.168,0.1-2.201,0.549-3.1,1.35c-0.268,0.268-0.518,0.6-0.75,1l-0.051,0.15  c-0.334,0.533-0.5,1.184-0.5,1.949c0,0.334,0.033,0.566,0.1,0.701l0.051,0.148l0.35,0.65c0.1,0.1,0.334,0.283,0.699,0.551  c0.68,0.432,1.73,0.865,3.15,1.299c0.115,0.033,0.232,0.066,0.35,0.102c3.629,1.049,5.896,1.814,6.801,2.299  c1.133,0.668,2.018,1.467,2.65,2.4l0.924,1.125c0.318,1.514,0.477,2.588,0.477,3.225c0,2.334-0.783,4.383-2.352,6.15l-0.148,0.199  l-0.201,0.15l-0.15,0.15c-1.699,1.633-3.648,2.551-5.85,2.75v5.25h-5v-5.75c-1.033-0.301-1.967-0.75-2.799-1.35  c-1.635-1.066-2.951-2.518-3.951-4.35l-1.15-2.201l4.4-2.35l1.201,2.199c0.566,1.068,1.316,1.918,2.25,2.551  c0.865,0.566,1.799,0.916,2.799,1.051l1,0.049c1.434,0,2.633-0.467,3.6-1.4l0.352-0.35c0.666-0.867,1-1.783,1-2.75L42.324,69.3  l-0.299-0.551c-0.201-0.268-0.484-0.5-0.85-0.699c-0.801-0.533-2.301-1.084-4.5-1.65l-2.951-0.9  c-0.074-0.027-0.148-0.053-0.225-0.074c-1.309-0.498-2.184-0.873-2.625-1.125c-1.133-0.635-2.018-1.434-2.65-2.4  c-0.367-0.5-0.633-0.951-0.799-1.35l-0.4-1.451l0.049,0.35C26.941,58.915,26.875,58.3,26.875,57.599z M83.525,20.599l0.5,1.951  l-3.15,0.799l-0.5-1.949L83.525,20.599z M83.225,57.599c-4.699,1.234-9.982,2.018-15.85,2.35c0.166,1.367,0.25,2.75,0.25,4.15  c0,3.133-0.434,6.184-1.301,9.15c6.533-0.301,12.102-1.084,16.701-2.35c3.367-0.867,5.699-1.801,7-2.801v-13  C88.357,55.999,86.092,56.833,83.225,57.599z M90.025,52.8V38.099c-1.668,0.9-3.934,1.734-6.801,2.5  c-6.434,1.701-14.266,2.551-23.5,2.551h-0.15c3.934,4.332,6.434,9.283,7.5,14.85c5.967-0.4,11.168-1.184,15.602-2.35  c3.365-0.867,5.799-1.816,7.299-2.85H90.025z"></path></svg>