<?xml version="1.0" encoding="utf-8"?>
<!-- Generator: Adobe Illustrator 24.0.2, SVG Export Plug-In . SVG Version: 6.00 Build 0)  -->
<svg version="1.2" baseProfile="tiny" id="Layer_1" xmlns="http://www.w3.org/2000/svg" xmlns:xlink="http://www.w3.org/1999/xlink"
	 x="0px" y="0px" viewBox="0 0 100 100" xml:space="preserve">
<path d="M77.1,57.2c0.2-0.2,0.4-0.4,0.6-0.6c0,0,0,0,0,0l0,0c0,0,0,0,0,0c1.6-2.6,9.6-10.9,9-14c0.3-12.3-16-10.2-22.6-16.2
	c-1-4.9-0.5-11.1-5.4-14c-2-1.3-4.3-2.4-6.7-2.1C46,9.9,40.7,20,37.3,23.9c0,0,0,0-0.1,0.1c0,0,0,0-0.1,0.1c0,0,0,0,0,0
	c-0.7,0.9-1.2,2-1.5,3.3c-13.9,2.3-13,4.2-21.8,15.6c0,0,0.1-0.1,0.1-0.1c-1.1,1.4-1.8,3-1.8,4.1c0,1.5-0.1,4.4,1.8,6.2
	c1.6,1.5,4.6,2,7.5,2.4c2,0.3,4.7,0.7,5,1.5c0.8,1.9-2.8,7.6-5.1,11.3l-0.3,0.5c-0.2,0.4-5.4,11-4.4,17l0.1,0.6l18,1.2
	c3.2-4.1,8.9-11.4,11.8-16.3c0.5,0.5,1,1.2,1.5,2.3c1.2,2.5,6.7,12.3,8.6,15.2l0.2,0.3l18,1.2l8-10.4l0.1-0.6
	c0.2-7.6-3.2-14.8-6.9-21.3C76.4,57.7,76.8,57.5,77.1,57.2z M41,21.4L41,21.4L41,21.4z M17.9,40L17.9,40L17.9,40z M14.8,41.9
	c-0.1,0.1-0.1,0.2-0.2,0.2C14.7,42,14.8,42,14.8,41.9z M63.8,62.7L63.8,62.7c0.9,2.5,2.8,5.8,5,9.4l0.2,0.4c0,0,0.1,0.1,0.1,0.2
	c0,0.1,0.1,0.1,0.1,0.2c0,0.1,0.1,0.1,0.1,0.2c0,0.1,0.1,0.2,0.1,0.3c0,0.1,0.1,0.1,0.1,0.2c0.1,0.2,0.2,0.4,0.3,0.6
	c0,0.1,0.1,0.2,0.1,0.3c0.1,0.2,0.1,0.3,0.2,0.5c0.1,0.1,0.1,0.3,0.2,0.4c0.1,0.1,0.1,0.3,0.2,0.4c0.1,0.2,0.1,0.3,0.2,0.5
	c0.1,0.2,0.1,0.3,0.2,0.5c0.1,0.2,0.1,0.4,0.2,0.6l0,0l0,0c1.3,3.5,2.8,8.1,2.6,11.2l-16.2-1.1c-1.5-2.3-4.3-7.1-6.2-10.7
	c0,0,0,0,0,0c-0.2-0.3-0.3-0.7-0.5-0.9c0,0,0,0,0,0c-0.3-0.6-0.6-1.2-0.9-1.7c0,0,0,0,0,0c-0.1-0.2-0.2-0.5-0.3-0.7c0,0,0,0,0,0l0,0
	c-0.1-0.3-0.2-0.5-0.3-0.6c-1.3-2.8-2.8-3.6-3.4-3.8l-0.2-0.1L45.5,69c-0.4,0.1-1,0.4-1.8,1.2c-0.2,0.2-0.3,0.3-0.4,0.5l0,0
	c0,0,0,0.1-0.1,0.1l0,0c-0.1,0.1-0.2,0.3-0.3,0.4c0,0,0,0.1-0.1,0.1c-0.1,0.2-0.3,0.4-0.4,0.6l0,0c-0.1,0.2-0.2,0.3-0.3,0.5
	c-0.2,0.4-0.5,0.9-0.8,1.6l0,0l0,0c-0.2,0.4-0.5,0.9-0.8,1.4l0,0l0,0c-1.9,3.4-4.9,8.4-6.4,10.6l-16.2-1.1c0-0.4,0-0.9,0-1.4
	c0-0.1,0-0.2,0-0.3c0-0.5,0.1-1,0.2-1.5l0,0l0,0c0,0,0-0.1,0-0.1l0,0l0,0c0.9-5.5,4.1-12.1,4.1-12.1l0.3-0.4
	c0.5-0.8,0.9-1.5,1.4-2.2l0,0c1.3-2.1,2.4-4,3.1-5.7l0,0c0.8-1.9,1.1-3.4,0.8-4.5c0-0.1,0-0.2-0.1-0.3c-0.6-1.6-3.1-1.9-6.1-2.4
	c-1.5-0.2-3.2-0.5-4.5-0.9c0,0,0,0-0.1,0c-0.3-0.1-0.5-0.2-0.7-0.3c0,0-0.1,0-0.1,0c-0.2-0.1-0.4-0.2-0.6-0.3c-0.1,0-0.1,0-0.1-0.1
	c-0.2-0.1-0.4-0.3-0.6-0.4c-0.3-0.2-0.4-0.5-0.6-0.8c0-0.1-0.1-0.1-0.1-0.2c-0.7-1.3-0.6-3-0.6-4c0-0.2,0.1-0.4,0.1-0.6
	c0-0.1,0-0.1,0.1-0.2c0.1-0.2,0.1-0.4,0.2-0.6c0-0.1,0.1-0.1,0.1-0.2c0.1-0.3,0.3-0.5,0.4-0.8c0,0,0-0.1,0.1-0.1
	c0.2-0.3,0.4-0.6,0.7-0.9l0,0l0,0c0.6-0.7,1.3-1.4,2.1-1.8c1-0.5,4.5-1.3,7.9-2l0,0c1.2-0.3,2.4-0.5,3.4-0.7h0
	c1.8-0.4,3.3-0.7,4.4-1.1c0.2,0,0.3-0.1,0.5-0.2c0.1,0,0.3-0.1,0.4-0.1c0.1,0,0.2-0.1,0.3-0.1c0.1-0.1,0.3-0.1,0.4-0.2
	c0.1,0,0.2-0.1,0.2-0.1c0.2-0.1,0.3-0.2,0.4-0.3l0,0l0,0l0,0l0,0l0,0l0,0c0.2-0.2,0.3-0.4,0.4-0.6l0,0c0.5-0.9,0.6-2.3,0.8-4.1
	c0.2-1.8,0.3-3.8,0.9-5.4l0,0l0,0c0.4-1.1,0.9-2,1.7-2.7c2.4-1.9,4.7-2.3,5.8-2.3l0.3,0l0.2,0l0.4,0c0.4,0.1,1.1,0.2,1.8,0.5l0,0
	l0,0c0.9,0.3,2,0.9,3.1,1.7c0,0,0,0,0,0l0,0c0.1,0.1,0.2,0.1,0.3,0.2l0,0c0.1,0,0.1,0.1,0.2,0.1l0,0c0.2,0.1,0.4,0.3,0.5,0.5
	c0.3,0.3,0.6,0.7,0.9,1.1l0,0l0,0c0.9,1.5,1.4,3.5,1.6,5.4c0,0,0,0.1,0,0.1c0.1,0.6,0.2,1.2,0.2,1.8c0.2,1.9,0.4,3.4,1,4.4l0,0
	c0,0,0,0.1,0.1,0.1l0,0c0.1,0.1,0.1,0.3,0.2,0.4l0,0c0.1,0.1,0.2,0.2,0.4,0.3c0.1,0,0.1,0.1,0.2,0.1s0.2,0.1,0.3,0.2
	c0.3,0.1,0.5,0.3,0.9,0.4c1.1,0.5,2.7,1.1,4.8,1.8c0.9,0.3,2,0.7,3.1,1c0.2,0,0.3,0.1,0.5,0.2l0,0l0,0l0,0c1,0.3,2.1,0.7,3,1l0,0
	c0,0,0,0,0,0c0.3,0.1,0.7,0.2,1,0.3c0,0,0.1,0,0.1,0c0.3,0.1,0.6,0.2,0.9,0.3c0,0,0,0,0.1,0c0.6,0.2,1.1,0.4,1.6,0.6c0,0,0,0,0,0
	l0,0c0.6,0.2,1,0.4,1.3,0.6c2.3,1.5,3.8,4.5,3.8,5.7c0.1,1.4,0.2,3.7-1.2,4.8c-1.3,1.1-4.2,1.1-6.8,1.2c-2.6,0-4.8,0.1-5.7,1l0,0
	c0,0,0,0-0.1,0.1c0,0,0,0.1-0.1,0.1l0,0c-0.1,0.1-0.2,0.2-0.2,0.3c-0.1,0.2-0.1,0.5-0.2,0.7c0,0,0,0.1,0,0.1c0,0.3,0,0.5,0,0.8
	c0,0,0,0,0,0.1C63.3,61.2,63.5,61.9,63.8,62.7z"/>
</svg>
