<svg height='100px' width='100px'  fill="#000000" xmlns="http://www.w3.org/2000/svg" data-name="Layer 1" viewBox="0 0 100 100" x="0px" y="0px"><title>10</title><g data-name="Group"><path data-name="Compound Path" d="M75.8,34.9c2.6-11.1,1.4-19.9-4-23.1h0c-2.3-1.4-5-1.6-8.2-.8S54.7,15.3,50,19.8c-4.7-4.5-9.5-7.6-13.6-8.7s-5.9-.6-8.2.7c-5.4,3.2-6.6,12-4,23.1C13.3,38.3,6.4,43.7,6.4,50s6.9,11.7,17.8,15.1c-2.6,11.1-1.4,19.9,4,23.1a9.4,9.4,0,0,0,4.7,1.2,15.5,15.5,0,0,0,3.5-.5c4.1-1.1,8.9-4.2,13.6-8.7,4.7,4.5,9.5,7.6,13.6,8.7a15.5,15.5,0,0,0,3.5.5,9.4,9.4,0,0,0,4.7-1.2c5.4-3.2,6.6-12,4-23.1C86.7,61.7,93.6,56.3,93.6,50S86.7,38.3,75.8,34.9ZM64.7,15a10.9,10.9,0,0,1,2.4-.4,6,6,0,0,1,2.7.7h0c4,2.3,4.2,9.7,2.2,18.5a95.4,95.4,0,0,0-11.7-1.9,89.4,89.4,0,0,0-7.5-9.3C57,18.6,61.1,15.9,64.7,15ZM62.5,57.3a80.9,80.9,0,0,1-4.4,6.9,73.2,73.2,0,0,1-8.1.4,73.2,73.2,0,0,1-8.1-.4,80.9,80.9,0,0,1-4.4-6.9c-1.3-2.3-2.6-4.8-3.7-7.3,1.1-2.5,2.4-5,3.7-7.3a80.9,80.9,0,0,1,4.4-6.9,73.2,73.2,0,0,1,8.1-.4,73.2,73.2,0,0,1,8.1.4,80.9,80.9,0,0,1,4.4,6.9c1.3,2.3,2.6,4.8,3.7,7.3C65.1,52.5,63.8,55,62.5,57.3Zm5.8-2.4c1,2.5,1.9,4.9,2.6,7.3a60.1,60.1,0,0,1-7.6,1.4L66,59.3C66.8,57.8,67.6,56.4,68.3,54.9ZM50,74.5q-2.6-2.7-5.1-6H55.1Q52.6,71.8,50,74.5ZM36.7,63.6a60.1,60.1,0,0,1-7.6-1.4c.7-2.4,1.6-4.8,2.6-7.3.7,1.5,1.5,2.9,2.3,4.4Zm-5-18.5c-1-2.5-1.9-4.9-2.6-7.3a60.1,60.1,0,0,1,7.6-1.4L34,40.7C33.2,42.2,32.4,43.6,31.7,45.1ZM50,25.5q2.6,2.7,5.1,6H44.9Q47.5,28.2,50,25.5ZM66,40.7l-2.7-4.3a60.1,60.1,0,0,1,7.6,1.4c-.7,2.4-1.6,4.8-2.6,7.3C67.6,43.6,66.8,42.2,66,40.7ZM30.2,15.3h0a6,6,0,0,1,2.7-.7,10.9,10.9,0,0,1,2.4.4c3.6.9,7.7,3.6,11.9,7.6a89.4,89.4,0,0,0-7.5,9.3A95.4,95.4,0,0,0,28,33.8C26,25,26.2,17.6,30.2,15.3ZM10.4,50c0-4.7,6.2-8.6,14.8-11.2A80.6,80.6,0,0,0,29.3,50a80.6,80.6,0,0,0-4.1,11.2C16.6,58.6,10.4,54.7,10.4,50ZM35.3,85a6.2,6.2,0,0,1-5.1-.3C26.2,82.4,26,75,28,66.2a95.4,95.4,0,0,0,11.7,1.9,89.4,89.4,0,0,0,7.5,9.3C43,81.4,38.9,84.1,35.3,85Zm34.5-.3a6.3,6.3,0,0,1-5.1.3c-3.6-.9-7.7-3.6-11.9-7.6a89.4,89.4,0,0,0,7.5-9.3A95.4,95.4,0,0,0,72,66.2C74,75,73.8,82.4,69.8,84.7Zm5-23.5A80.6,80.6,0,0,0,70.7,50a80.6,80.6,0,0,0,4.1-11.2c8.6,2.6,14.8,6.5,14.8,11.2S83.4,58.6,74.8,61.2Z"></path></g></svg>