<svg height='100px' width='100px'  fill="#000000" xmlns="http://www.w3.org/2000/svg" viewBox="0 0 64 64" x="0px" y="0px"><title>06- saturn- planet-space-orbit</title><path d="M37.66,11.78A21,21,0,0,0,11.79,37.65C4,48.34,1.25,56.67,4.54,59.95a5.29,5.29,0,0,0,3.9,1.4c2.69,0,6.29-1.22,10.68-3.65a74.93,74.93,0,0,0,8.07-5.26A21,21,0,0,0,52.44,27.19a74.93,74.93,0,0,0,5.26-8.07C61.62,12,62.4,7,59.95,4.54,56.67,1.26,48.34,4,37.66,11.78ZM32,13a19,19,0,0,1,16.3,9.24A66.89,66.89,0,0,1,36.85,36.85,66.88,66.88,0,0,1,22.24,48.3,19,19,0,0,1,32,13Zm17.32,7.14a21,21,0,0,0-4.89-5.05c3.17-1.38,5-1.28,5.6-.64S50.59,17.27,49.32,20.14ZM15.09,44.43a21,21,0,0,0,5,4.9c-2.87,1.26-4.91,1.49-5.69.71S13.89,47.17,15.09,44.43ZM51,32A19,19,0,0,1,29.34,50.81a124.93,124.93,0,0,0,11.37-10.1,124.92,124.92,0,0,0,10.1-11.37A19.17,19.17,0,0,1,51,32Zm4.94-13.85c-3.59,6.49-9.5,14-16.65,21.14S24.64,52.35,18.15,55.94c-6,3.3-10.52,4.27-12.2,2.59C4,56.6,5.39,50.14,12.58,40a21.2,21.2,0,0,0,1.22,2.49c-2.11,4.27-2.38,7.38-.77,9a3.88,3.88,0,0,0,2.87,1c5.32,0,14.74-6.6,22.36-14.22a70.6,70.6,0,0,0,12-15.41,1,1,0,0,0,.18-.35c2.15-4.17,2.83-7.67,1-9.47-1.61-1.61-4.71-1.33-9,.77A21.08,21.08,0,0,0,40,12.58C50.14,5.39,56.6,4,58.54,5.95,60.21,7.63,59.25,12.19,55.94,18.15Z"></path></svg>