<svg height='100px' width='100px'  fill="#000000" xmlns="http://www.w3.org/2000/svg" xmlns:xlink="http://www.w3.org/1999/xlink" version="1.1" x="0px" y="0px" viewBox="0 0 100 100" enable-background="new 0 0 100 100" xml:space="preserve"><path d="M5,81.165l7.918-0.001l9.56-9.56l-5.498-5.498l4.859-10.177l4.225,4.225L73.419,6.439L95,5l-1.439,21.582L39.846,73.937  l4.225,4.224l-10.176,4.861l-5.499-5.499l-9.56,9.56L18.835,95H5V81.165z M15.937,85.88L26.31,75.507l-1.816-1.816L14.12,84.063  l-6.221,0.001v8.036h8.037V85.88z M39.12,77.312L22.688,60.88l-2.209,4.626l14.016,14.016L39.12,77.312z M90.748,25.197  l1.139-17.083L74.804,9.252L28.118,62.208l9.673,9.674L90.748,25.197z M10.072,85.855H14v4.267h-3.928V85.855z M40.229,61.333  l-2.051-2.051L75.77,21.691l2.05,2.05L40.229,61.333z M58.727,60.288l2.18-1.922l0.916,0.916l-2.051,2.051L58.727,60.288z   M32.449,49.512l1.917-2.175L9.252,25.197L8.113,8.114l17.083,1.138l21.373,24.243l1.933-2.192L26.581,6.439L5,5l1.439,21.582  L32.449,49.512z M86,90.122h3.928v-4.267H86V90.122z M22.181,23.741l17.532,17.532l1.921-2.179L24.23,21.691L22.181,23.741z   M87.082,81.164L95,81.165V95H81.165l-0.001-7.918l-9.56-9.56l-5.499,5.499L55.93,78.16l4.225-4.224l-8.455-7.454l2.193-1.933  l8.316,7.332l9.673-9.674l-6.706-7.606l2.176-1.917l6.585,7.47l4.225-4.225l4.859,10.177l-5.498,5.498L87.082,81.164z   M79.521,65.506l-2.209-4.626L60.88,77.312l4.625,2.21L79.521,65.506z M92.101,84.064l-6.221-0.001L75.507,73.69l-1.816,1.816  L84.063,85.88v6.221h8.037V84.064z"></path></svg>