<svg height='100px' width='100px'  fill="#000000" xmlns:x="http://ns.adobe.com/Extensibility/1.0/" xmlns:i="http://ns.adobe.com/AdobeIllustrator/10.0/" xmlns:graph="http://ns.adobe.com/Graphs/1.0/" xmlns="http://www.w3.org/2000/svg" xmlns:xlink="http://www.w3.org/1999/xlink" version="1.1" x="0px" y="0px" viewBox="0 0 100 100" enable-background="new 0 0 100 100" xml:space="preserve"><g><g i:extraneous="self"><g><path d="M45.1841583,94.3112793c8.8343468-4.9139404,25.9468689-18.0890427,15.9788361-47.9990807     C54.9051781,27.5387478,56.3139915,15.133708,57.912117,8.63908c0.2993774-1.2166448,0.6983147-2.1261201-0.3001213-3.2113776     s-2.9733086,0.426167-2.9733086,0.426167c-8.9758644,4.8269005-25.6902637,18.1934738-15.7915993,47.8956375     c6.6963196,20.0888329,4.746376,32.915226,2.8885765,38.9435005c0,0-0.4893532,1.4110947,0.2269173,2.0622482     S43.8181839,95.0710754,45.1841583,94.3112793z"></path><path d="M73.4471359,81.722496c6.3206329-3.5157318,18.5639877-12.9420166,11.4322433-34.3415031     c-4.4772263-13.4316864-3.4692764-22.3070164-2.325882-26.9536762c0.2141953-0.8704624,0.4996185-1.5211563-0.2147217-2.297617     s-2.1272888,0.3049068-2.1272888,0.3049068c-6.4218903,3.4534626-18.3804016,13.0167332-11.2982864,34.2674942     c4.7909622,14.3727951,3.3958511,23.5495911,2.0666656,27.862587c0,0-0.3501129,1.0095825,0.1623535,1.4754562     C71.6546783,82.5060272,72.4698334,82.2661057,73.4471359,81.722496z"></path><path d="M19.6617661,81.722496c6.3206367-3.5157318,18.5639915-12.9420166,11.4322453-34.3415031     c-4.4772282-13.4316864-3.4692745-22.3070164-2.3258781-26.9536762c0.2141933-0.8704624,0.4996185-1.5211563-0.2147255-2.297617     c-0.7143421-0.7764606-2.1272888,0.3049068-2.1272888,0.3049068     c-6.4218884,3.4534626-18.3804016,13.0167332-11.2982855,34.2674942     c4.7909632,14.3727951,3.3958521,23.5495911,2.0666666,27.862587c0,0-0.3501129,1.0095825,0.1623497,1.4754562     C17.8693142,82.5060272,18.6844635,82.2661057,19.6617661,81.722496z"></path></g></g></g></svg>