<svg height='100px' width='100px'  fill="#000000" xmlns="http://www.w3.org/2000/svg" xmlns:xlink="http://www.w3.org/1999/xlink" version="1.1" x="0px" y="0px" viewBox="0 0 95 95" enable-background="new 0 0 95 95" xml:space="preserve"><g><path d="M64.724,87.334h0.089c-0.032,0-0.062-0.002-0.093-0.002c-1.796-0.007-3.446-0.213-4.953-0.558   c-5.18-1.188-8.658-3.332-10.557-4.792v-27.73c1.402-0.341,2.379-1.088,2.379-1.956c0-0.026-0.006-0.052-0.008-0.078   c10.281-2.281,18.065-13.01,18.065-25.909c0-0.162-0.007-0.322-0.01-0.481c-0.032-0.923-0.167-3.136-0.732-6.292   c-0.722-4.04-2.148-8.148-4.958-12.959H31.054c-2.809,4.811-4.236,8.919-4.959,12.959c-0.563,3.156-0.699,5.369-0.73,6.292   c-0.004,0.16-0.01,0.32-0.01,0.481c0,12.899,7.784,23.628,18.064,25.909c-0.002,0.026-0.008,0.051-0.008,0.078   c0,0.868,0.977,1.615,2.379,1.956v27.687c-1.889,1.463-5.394,3.643-10.639,4.841c-1.482,0.338-3.104,0.541-4.867,0.552   c-0.053,0-0.102,0.003-0.155,0.003h0.147c-0.094,0.041-0.147,0.082-0.147,0.124c0,0.534,7.777,0.967,17.372,0.967   c9.593,0,17.37-0.433,17.37-0.967C64.871,87.416,64.817,87.375,64.724,87.334z M47.5,49.783c-0.577,0-1.146-0.036-1.71-0.094   c-9.896-1.031-17.661-10.917-17.661-22.965c0-0.142,0.007-0.281,0.009-0.421c0.028-0.808,0.146-2.744,0.639-5.504   c0.633-3.534,1.881-7.127,4.338-11.335h28.771c2.457,4.208,3.705,7.801,4.336,11.335c0.494,2.76,0.613,4.696,0.641,5.504   c0.003,0.14,0.01,0.279,0.01,0.421c0,12.049-7.765,21.934-17.662,22.965C48.646,49.748,48.077,49.783,47.5,49.783z"></path><path d="M65.385,26.946c0-0.13-0.006-0.259-0.009-0.388c-0.018-0.519-0.078-1.552-0.266-2.986h-35.22   c-0.187,1.434-0.249,2.467-0.267,2.986c-0.002,0.129-0.008,0.258-0.008,0.388c0,11.125,7.169,20.251,16.306,21.203   c0.521,0.055,1.046,0.087,1.578,0.087s1.059-0.033,1.579-0.087C58.216,47.196,65.385,38.07,65.385,26.946z"></path></g></svg>