<svg height='100px' width='100px'  fill="#000000" xmlns="http://www.w3.org/2000/svg" data-name="Capa 2" viewBox="0 0 100 100" x="0px" y="0px"><title>Artboard 32</title><path d="M85.69,36.65c-.15,0-18.26-.07-18.26-.07a4.94,4.94,0,0,0,.45-2.91A7.24,7.24,0,0,0,62,27.78,4.7,4.7,0,0,0,58,29h0l-7.69,7.57H15.36l-.19,0-.18,0c-5.52,0-8.5,9.2-8.5,17.85,0,8.46,2.85,17.41,8.13,17.81a1.78,1.78,0,0,0,.37,0s70.43,0,70.57-.06c5.15-.61,7.93-9.44,7.93-17.79S90.76,37.38,85.69,36.65ZM60.46,31.53a1.24,1.24,0,0,1,1-.23,3.71,3.71,0,0,1,2.87,2.87,1.25,1.25,0,0,1-.23,1c-.5.5-1.84.27-2.89-.78a3.44,3.44,0,0,1-1-1.86A1.25,1.25,0,0,1,60.46,31.53ZM15,68.72c-2,0-4.94-5.57-4.94-14.3S13,40.13,15,40.13s4.94,5.57,4.94,14.3S17,68.72,15,68.72Zm70,0H20.22a25.3,25.3,0,0,0,3-10.2h18.4a1.78,1.78,0,1,0,0-3.56H23.48c0-.18,0-.36,0-.54,0-5.32-1.13-10.83-3.27-14.3H46.65l-1.07,1.05a1.78,1.78,0,0,0,2.5,2.54l9.13-9a7.32,7.32,0,0,0,1.51,2.21,7.4,7.4,0,0,0,2.16,1.51l-4.28,4.28a1.78,1.78,0,1,0,2.52,2.52l5.1-5.1H85c2,0,4.94,5.57,4.94,14.3S87,68.72,85,68.72Z"></path><g>"><path d="M85,50.07H67.46a1.78,1.78,0,0,1,0-3.56H85a1.78,1.78,0,0,1,0,3.56Z"></path></g><g>"><path d="M14.62,64.65a1.78,1.78,0,0,1-.81-3.36c.51-1.45.51-6.4.51-8.86v-.34a1.78,1.78,0,1,1,3.56,0v.34c0,2.32,0,5-.19,7.08C17.54,61.17,17.22,64.65,14.62,64.65Z"></path></g></svg>